<?xml version="1.0" encoding="UTF-8" standalone="no"?>
<!DOCTYPE svg PUBLIC "-//W3C//DTD SVG 1.1//EN" "http://www.w3.org/Graphics/SVG/1.1/DTD/svg11.dtd">
<svg width="60.00" height="60.00" viewBox="0.00 0.00 250.00 250.00" xmlns="http://www.w3.org/2000/svg" xmlns:xlink="http://www.w3.org/1999/xlink">
<g stroke-linecap="round" id="레이어_1">
<path d="M124.74,24.74 C131.79,24.76 148.93,27.47 155.64,29.63 C162.34,31.83 177.81,39.71 183.52,43.84 C189.21,47.99 201.49,60.27 205.64,65.96 C209.77,71.67 217.65,87.14 219.85,93.84 C222.01,100.55 224.73,117.69 224.74,124.74 C224.73,131.79 222.01,148.93 219.85,155.64 C217.65,162.34 209.77,177.81 205.64,183.52 C201.49,189.21 189.21,201.49 183.52,205.64 C177.81,209.77 162.34,217.65 155.64,219.85 C148.93,222.01 131.79,224.73 124.74,224.74 C117.69,224.73 100.55,222.01 93.84,219.85 C87.14,217.65 71.67,209.77 65.96,205.64 C60.27,201.49 47.99,189.21 43.84,183.52 C39.71,177.81 31.83,162.34 29.63,155.64 C27.47,148.93 24.76,131.79 24.74,124.74 C24.76,117.69 27.47,100.55 29.63,93.84 C31.83,87.14 39.71,71.67 43.84,65.96 C47.99,60.27 60.27,47.99 65.96,43.84 C71.67,39.71 87.14,31.83 93.84,29.63 C100.55,27.47 117.69,24.76 124.74,24.74 Z" fill="none" stroke="rgb(0, 0, 0)" stroke-width="2.50" stroke-opacity="1.00" stroke-linejoin="round"/>
<path d="M125.26,24.74 C118.21,24.76 101.07,27.47 94.36,29.63 C87.66,31.83 72.19,39.71 66.48,43.84 C60.79,47.99 48.51,60.27 44.36,65.96 C40.23,71.67 32.35,87.14 30.15,93.84 C27.99,100.55 25.27,117.69 25.26,124.74 C25.27,131.79 27.99,148.93 30.15,155.64 C32.35,162.34 40.23,177.81 44.36,183.52 C48.51,189.21 60.79,201.49 66.48,205.64 C72.19,209.77 87.66,217.65 94.36,219.85 C101.07,222.01 118.21,224.73 125.26,224.74 C132.31,224.73 149.45,222.01 156.16,219.85 C162.86,217.65 178.33,209.77 184.04,205.64 C189.73,201.49 202.01,189.21 206.16,183.52 C210.29,177.81 218.17,162.34 220.37,155.64 C222.53,148.93 225.24,131.79 225.26,124.74 C225.24,117.69 222.53,100.55 220.37,93.84 C218.17,87.14 210.29,71.67 206.16,65.96 C202.01,60.27 189.73,47.99 184.04,43.84 C178.33,39.71 162.86,31.83 156.16,29.63 C149.45,27.47 132.31,24.76 125.26,24.74 Z" fill="none" stroke="rgb(0, 0, 0)" stroke-width="5.00" stroke-opacity="1.00" stroke-linejoin="round"/>
<path d="M81.14,88.62 L76.77,118.68" fill="none" stroke="rgb(0, 0, 0)" stroke-width="3.00" stroke-opacity="1.00" stroke-linejoin="round"/>
<path d="M168.86,88.62 L173.23,118.68" fill="none" stroke="rgb(0, 0, 0)" stroke-width="3.00" stroke-opacity="1.00" stroke-linejoin="round"/>
<path d="M91.44,85.94 L103.02,100.48" fill="none" stroke="rgb(0, 0, 0)" stroke-width="3.00" stroke-opacity="1.00" stroke-linejoin="round"/>
<path d="M158.56,85.94 L146.98,100.48" fill="none" stroke="rgb(0, 0, 0)" stroke-width="3.00" stroke-opacity="1.00" stroke-linejoin="round"/>
<path d="M81.43,88.02 C80.27,87.65 78.51,86.84 77.75,86.08 C76.84,85.13 75.42,81.76 75.36,80.30 C75.34,78.81 76.69,75.60 77.75,74.51 C78.84,73.47 82.05,72.14 83.54,72.11 C85.06,72.13 88.27,73.45 89.33,74.51 C90.36,75.60 91.74,78.96 91.73,80.30 C91.70,81.41 90.87,83.43 90.19,84.68" fill="none" stroke="rgb(0, 0, 0)" stroke-width="2.50" stroke-opacity="1.00" stroke-linejoin="round"/>
<path d="M168.57,88.02 C169.73,87.65 171.49,86.84 172.25,86.08 C173.16,85.13 174.58,81.76 174.64,80.30 C174.66,78.81 173.31,75.60 172.25,74.51 C171.16,73.47 167.95,72.14 166.46,72.11 C164.94,72.13 161.73,73.45 160.67,74.51 C159.64,75.60 158.26,78.96 158.27,80.30 C158.30,81.41 159.13,83.43 159.81,84.68" fill="none" stroke="rgb(0, 0, 0)" stroke-width="2.50" stroke-opacity="1.00" stroke-linejoin="round"/>
<path d="M102.88,99.91 C102.88,99.91 122.07,94.55 125.03,95.96" fill="none" stroke="rgb(0, 0, 0)" stroke-width="3.00" stroke-opacity="1.00" stroke-linejoin="round"/>
<path d="M147.12,99.91 C147.12,99.91 127.93,94.55 124.97,95.96" fill="none" stroke="rgb(0, 0, 0)" stroke-width="3.00" stroke-opacity="1.00" stroke-linejoin="round"/>
<path d="M76.65,118.18 C42.77,166.53 94.83,185.33 94.83,185.33" fill="none" stroke="rgb(0, 0, 0)" stroke-width="3.00" stroke-opacity="1.00" stroke-linejoin="round"/>
<path d="M173.35,118.18 C207.23,166.53 155.17,185.33 155.17,185.33" fill="none" stroke="rgb(0, 0, 0)" stroke-width="3.00" stroke-opacity="1.00" stroke-linejoin="round"/>
<path d="M95.04,185.12 C99.38,188.43 125.00,189.88 125.00,189.88" fill="none" stroke="rgb(0, 0, 0)" stroke-width="3.00" stroke-opacity="1.00" stroke-linejoin="round"/>
<path d="M154.96,185.12 C150.62,188.43 125.00,189.88 125.00,189.88" fill="none" stroke="rgb(0, 0, 0)" stroke-width="3.00" stroke-opacity="1.00" stroke-linejoin="round"/>
<path d="M124.90,157.33 C101.55,157.23 101.65,157.23 101.65,157.23 C95.97,160.74 97.62,162.09 97.62,162.09 C101.24,172.11 117.56,173.76 117.56,173.76 C117.56,173.76 124.79,174.48 124.79,174.48" fill="none" stroke="rgb(0, 0, 0)" stroke-width="3.00" stroke-opacity="1.00" stroke-linejoin="round"/>
<path d="M125.10,157.33 C148.45,157.23 148.35,157.23 148.35,157.23 C154.03,160.74 152.38,162.09 152.38,162.09 C148.76,172.11 132.44,173.76 132.44,173.76 C132.44,173.76 125.21,174.48 125.21,174.48" fill="none" stroke="rgb(0, 0, 0)" stroke-width="3.00" stroke-opacity="1.00" stroke-linejoin="round"/>
<path d="M100.93,161.05 C100.93,161.05 105.58,166.94 105.58,166.94 C105.58,166.94 109.50,161.05 109.50,161.05 C109.50,161.05 108.78,159.50 108.78,159.50" fill="none" stroke="rgb(0, 0, 0)" stroke-width="3.00" stroke-opacity="1.00" stroke-linejoin="round"/>
<path d="M148.49,160.51 C148.81,160.81 149.07,161.05 149.07,161.05 C149.07,161.05 144.42,166.94 144.42,166.94 C144.42,166.94 140.50,161.05 140.50,161.05" fill="none" stroke="rgb(0, 0, 0)" stroke-width="3.00" stroke-opacity="1.00" stroke-linejoin="round"/>
<path d="M98.97,161.78 C104.96,168.18 104.13,167.67 104.13,167.67 C114.05,172.00 125.21,172.31 125.21,172.31 C125.21,172.31 125.31,157.64 125.31,157.64 C125.31,157.64 102.17,157.54 102.17,157.54 C102.17,157.54 98.97,160.54 98.97,160.54" fill="none" stroke="rgb(0, 0, 0)" stroke-width="3.50" stroke-opacity="1.00" stroke-linejoin="round"/>
<path d="M151.03,161.78 C145.04,168.18 145.87,167.67 145.87,167.67 C135.95,172.00 124.79,172.31 124.79,172.31 C124.79,172.31 124.69,157.64 124.69,157.64 C124.69,157.64 147.83,157.54 147.83,157.54 C147.83,157.54 151.03,160.54 151.03,160.54" fill="none" stroke="rgb(0, 0, 0)" stroke-width="3.50" stroke-opacity="1.00" stroke-linejoin="round"/>
<path d="M106.82,169.21 C116.84,173.04 117.25,173.14 117.25,173.14" fill="none" stroke="rgb(0, 0, 0)" stroke-width="3.50" stroke-opacity="1.00" stroke-linejoin="round"/>
<path d="M143.18,169.21 C133.16,173.04 132.75,173.14 132.75,173.14" fill="none" stroke="rgb(0, 0, 0)" stroke-width="3.50" stroke-opacity="1.00" stroke-linejoin="round"/>
<path d="M117.56,172.62 C123.97,173.55 123.86,173.45 123.86,173.45" fill="none" stroke="rgb(0, 0, 0)" stroke-width="3.50" stroke-opacity="1.00" stroke-linejoin="round"/>
<path d="M132.44,172.62 C126.03,173.55 126.14,173.45 126.14,173.45" fill="none" stroke="rgb(0, 0, 0)" stroke-width="3.50" stroke-opacity="1.00" stroke-linejoin="round"/>
<path d="M110.02,159.19 C110.02,159.19 111.98,161.16 111.98,161.16 C111.98,161.16 106.82,167.25 106.82,167.25" fill="none" stroke="rgb(0, 0, 0)" stroke-width="3.50" stroke-opacity="1.00" stroke-linejoin="round"/>
<path d="M139.98,159.19 C139.98,159.19 138.02,161.16 138.02,161.16 C138.02,161.16 143.18,167.25 143.18,167.25" fill="none" stroke="rgb(0, 0, 0)" stroke-width="3.50" stroke-opacity="1.00" stroke-linejoin="round"/>
<path d="M113.84,160.85 C113.84,160.85 122.83,161.47 122.83,161.47 C122.83,161.47 121.59,169.63 121.59,169.63 C121.59,169.63 110.64,166.63 110.64,166.63" fill="none" stroke="rgb(0, 0, 0)" stroke-width="10.00" stroke-opacity="1.00" stroke-linejoin="round"/>
<path d="M136.16,160.85 C136.16,160.85 127.17,161.47 127.17,161.47 C127.17,161.47 128.41,169.63 128.41,169.63 C128.41,169.63 139.36,166.63 139.36,166.63" fill="none" stroke="rgb(0, 0, 0)" stroke-width="10.00" stroke-opacity="1.00" stroke-linejoin="round"/>
<path d="M105.60,91.20 C105.60,91.20 105.91,90.16 105.91,90.16 C105.91,90.16 107.17,89.74 107.17,89.74 C107.17,89.74 110.19,88.91 110.19,88.91" fill="none" stroke="rgb(0, 0, 0)" stroke-width="15.00" stroke-opacity="1.00" stroke-linejoin="round"/>
<path d="M144.40,91.20 C144.40,91.20 144.09,90.16 144.09,90.16 C144.09,90.16 142.83,89.74 142.83,89.74 C142.83,89.74 139.81,88.91 139.81,88.91" fill="none" stroke="rgb(0, 0, 0)" stroke-width="15.00" stroke-opacity="1.00" stroke-linejoin="round"/>
<path d="M105.29,91.41 C105.29,91.41 106.96,90.99 106.96,90.99 C106.96,90.99 110.09,90.37 110.09,90.37 C110.09,90.37 110.61,90.37 110.61,90.37" fill="none" stroke="rgb(0, 0, 0)" stroke-width="15.00" stroke-opacity="1.00" stroke-linejoin="round"/>
<path d="M144.71,91.41 C144.71,91.41 143.04,90.99 143.04,90.99 C143.04,90.99 139.91,90.37 139.91,90.37 C139.91,90.37 139.39,90.37 139.39,90.37" fill="none" stroke="rgb(0, 0, 0)" stroke-width="15.00" stroke-opacity="1.00" stroke-linejoin="round"/>
<path d="M103.72,96.63" fill="none" stroke="rgb(0, 0, 0)" stroke-width="6.00" stroke-opacity="1.00" stroke-linejoin="round"/>
<path d="M146.28,96.63" fill="none" stroke="rgb(0, 0, 0)" stroke-width="6.00" stroke-opacity="1.00" stroke-linejoin="round"/>
<path d="M103.72,96.63" fill="none" stroke="rgb(0, 0, 0)" stroke-width="6.00" stroke-opacity="1.00" stroke-linejoin="round"/>
<path d="M146.28,96.63" fill="none" stroke="rgb(0, 0, 0)" stroke-width="6.00" stroke-opacity="1.00" stroke-linejoin="round"/>
<path d="M113.32,93.91 C113.50,93.94 125.18,92.68 125.32,92.66 C126.23,92.54 131.54,92.25 132.63,92.24 C132.63,92.24 132.52,91.83 132.52,91.83" fill="none" stroke="rgb(0, 0, 0)" stroke-width="6.00" stroke-opacity="1.00" stroke-linejoin="round"/>
<path d="M136.68,93.91 C136.50,93.94 124.82,92.68 124.68,92.66 C123.77,92.54 118.46,92.25 117.37,92.24 C117.37,92.24 117.48,91.83 117.48,91.83" fill="none" stroke="rgb(0, 0, 0)" stroke-width="6.00" stroke-opacity="1.00" stroke-linejoin="round"/>
<path d="M94.33,84.11 C94.33,84.11 99.13,88.18 99.13,88.18 C99.13,88.18 99.97,90.68 99.97,90.68 C99.97,90.68 100.18,90.37 100.18,90.37" fill="none" stroke="rgb(0, 0, 0)" stroke-width="6.00" stroke-opacity="1.00" stroke-linejoin="round"/>
<path d="M155.67,84.11 C155.67,84.11 150.87,88.18 150.87,88.18 C150.87,88.18 150.03,90.68 150.03,90.68 C150.03,90.68 149.82,90.37 149.82,90.37" fill="none" stroke="rgb(0, 0, 0)" stroke-width="6.00" stroke-opacity="1.00" stroke-linejoin="round"/>
<path d="M98.92,90.37 C98.92,90.37 95.58,86.71 95.58,86.71" fill="none" stroke="rgb(0, 0, 0)" stroke-width="6.00" stroke-opacity="1.00" stroke-linejoin="round"/>
<path d="M151.08,90.37 C151.08,90.37 154.42,86.71 154.42,86.71" fill="none" stroke="rgb(0, 0, 0)" stroke-width="6.00" stroke-opacity="1.00" stroke-linejoin="round"/>
<path d="M99.55,92.45 C99.55,92.45 98.30,90.16 98.30,90.16" fill="none" stroke="rgb(0, 0, 0)" stroke-width="6.00" stroke-opacity="1.00" stroke-linejoin="round"/>
<path d="M150.45,92.45 C150.45,92.45 151.70,90.16 151.70,90.16" fill="none" stroke="rgb(0, 0, 0)" stroke-width="6.00" stroke-opacity="1.00" stroke-linejoin="round"/>
<path d="M93.63,83.89" fill="none" stroke="rgb(0, 0, 0)" stroke-width="6.00" stroke-opacity="1.00" stroke-linejoin="round"/>
<path d="M156.37,83.89" fill="none" stroke="rgb(0, 0, 0)" stroke-width="6.00" stroke-opacity="1.00" stroke-linejoin="round"/>
<path d="M93.63,84.25 C93.63,84.25 93.07,84.25 93.07,84.25" fill="none" stroke="rgb(0, 0, 0)" stroke-width="6.00" stroke-opacity="1.00" stroke-linejoin="round"/>
<path d="M156.37,84.25 C156.37,84.25 156.93,84.25 156.93,84.25" fill="none" stroke="rgb(0, 0, 0)" stroke-width="6.00" stroke-opacity="1.00" stroke-linejoin="round"/>
<path d="M93.28,84.21 C95.01,82.85 106.44,79.41 107.11,79.17 C107.28,79.11 107.57,79.09 107.96,79.10" fill="none" stroke="rgb(0, 0, 0)" stroke-width="6.00" stroke-opacity="1.00" stroke-linejoin="round"/>
<path d="M156.72,84.21 C154.99,82.85 143.56,79.41 142.89,79.17 C142.72,79.11 142.43,79.09 142.04,79.10" fill="none" stroke="rgb(0, 0, 0)" stroke-width="6.00" stroke-opacity="1.00" stroke-linejoin="round"/>
<path d="M100.66,84.64 C100.66,84.64 100.66,84.48 100.66,84.48 C100.66,84.48 110.88,81.41 110.88,81.41" fill="none" stroke="rgb(0, 0, 0)" stroke-width="6.00" stroke-opacity="1.00" stroke-linejoin="round"/>
<path d="M149.34,84.64 C149.34,84.64 149.34,84.48 149.34,84.48 C149.34,84.48 139.12,81.41 139.12,81.41" fill="none" stroke="rgb(0, 0, 0)" stroke-width="6.00" stroke-opacity="1.00" stroke-linejoin="round"/>
<path d="M121.40,73.73 C120.90,69.80 118.69,63.41 118.57,63.01 C116.78,57.14 114.11,54.02 111.80,49.13" fill="none" stroke="rgb(0, 0, 0)" stroke-width="40.00" stroke-opacity="1.00" stroke-linejoin="round"/>
<path d="M128.60,73.73 C129.10,69.80 131.31,63.41 131.43,63.01 C133.22,57.14 135.89,54.02 138.20,49.13" fill="none" stroke="rgb(0, 0, 0)" stroke-width="40.00" stroke-opacity="1.00" stroke-linejoin="round"/>
<path d="M114.75,44.75" fill="none" stroke="rgb(0, 0, 0)" stroke-width="40.00" stroke-opacity="1.00" stroke-linejoin="round"/>
<path d="M135.25,44.75" fill="none" stroke="rgb(0, 0, 0)" stroke-width="40.00" stroke-opacity="1.00" stroke-linejoin="round"/>
<path d="M123.38,45.50 C123.38,45.50 122.25,45.25 122.25,45.25" fill="none" stroke="rgb(0, 0, 0)" stroke-width="40.00" stroke-opacity="1.00" stroke-linejoin="round"/>
<path d="M126.62,45.50 C126.62,45.50 127.75,45.25 127.75,45.25" fill="none" stroke="rgb(0, 0, 0)" stroke-width="40.00" stroke-opacity="1.00" stroke-linejoin="round"/>
<path d="M103.25,38.50 C103.25,38.50 88.62,43.25 88.62,43.25 C88.62,43.25 84.88,45.75 84.88,45.75 C83.25,46.62 69.78,55.09 67.00,58.38 C66.99,57.01 70.93,52.41 72.75,50.75 C75.83,48.70 78.23,46.14 78.62,45.75 C78.62,45.75 81.38,45.00 81.38,45.00 C81.75,45.35 82.33,47.20 82.38,47.25 C82.44,47.33 83.32,48.19 83.62,48.50 C86.44,48.53 89.96,48.44 90.12,48.50 C91.43,49.00 88.45,51.66 88.25,51.88" fill="none" stroke="rgb(0, 0, 0)" stroke-width="20.00" stroke-opacity="1.00" stroke-linejoin="round"/>
<path d="M146.75,38.50 C146.75,38.50 161.37,43.25 161.37,43.25 C161.37,43.25 165.12,45.75 165.12,45.75 C166.75,46.62 180.22,55.09 183.00,58.37 C183.01,57.01 179.07,52.41 177.25,50.75 C174.17,48.70 171.77,46.14 171.37,45.75 C171.37,45.75 168.62,45.00 168.62,45.00 C168.25,45.35 167.67,47.20 167.62,47.25 C167.56,47.33 166.68,48.19 166.37,48.50 C163.56,48.53 160.04,48.44 159.87,48.50 C158.57,49.00 161.55,51.66 161.75,51.87" fill="none" stroke="rgb(0, 0, 0)" stroke-width="20.00" stroke-opacity="1.00" stroke-linejoin="round"/>
<path d="M70.00,57.75 C69.54,58.62 65.64,62.13 64.12,63.62 C59.92,67.64 52.44,78.75 49.88,82.62 C49.77,82.76 49.74,83.13 49.75,83.62 C49.50,83.75 53.49,79.83 62.28,69.78 C63.93,67.89 78.25,53.29 78.62,52.50 C78.62,52.50 79.62,51.50 79.62,51.50 C80.74,51.67 68.07,69.04 67.88,69.38 C67.88,69.38 65.38,72.00 65.38,72.00 C64.78,69.29 65.45,66.31 67.25,62.62 C68.08,60.90 69.31,58.54 69.38,58.50 C69.38,58.50 62.38,62.50 62.38,62.50 C62.38,62.50 65.38,58.00 65.38,58.00 C65.38,58.00 66.62,56.62 66.62,56.62 C66.90,56.50 64.48,57.71 57.25,68.75 C57.09,69.00 54.09,73.54 54.00,73.62 C53.77,74.12 49.19,81.25 45.75,88.38 C44.60,90.79 43.52,95.23 42.62,98.12 C42.40,98.85 39.83,113.73 39.75,113.88 C39.71,110.34 42.41,100.16 43.00,97.88 C44.71,91.23 45.76,88.12 47.62,83.75 C52.57,72.34 54.94,70.19 55.12,70.12 C55.12,70.12 57.50,65.62 57.50,65.62 C57.73,65.62 43.19,93.56 43.12,94.00 C42.75,96.68 40.14,104.99 40.25,105.38 C39.96,102.49 41.77,97.61 42.50,95.12 C43.12,93.02 48.42,81.22 49.38,79.62 C49.38,79.62 51.00,76.88 51.00,76.88 C51.00,76.88 51.75,75.12 51.75,75.12 C51.29,75.76 45.68,86.09 42.00,94.88 C41.42,96.23 41.06,98.07 40.38,99.38 C40.27,97.56 42.48,91.45 42.50,91.38 C43.68,87.36 46.44,81.75 47.75,79.00 C48.59,77.39 50.19,73.99 50.38,73.88 C50.45,74.16 44.27,87.71 43.88,88.50 C43.72,88.94 42.53,92.40 42.25,92.62 C42.25,92.62 38.25,102.62 38.25,102.62 C38.25,102.62 37.00,105.62 37.00,105.62 C37.00,105.62 36.25,107.88 36.25,107.88 C36.25,107.88 35.75,109.88 35.75,109.88 C35.75,109.88 35.00,114.62 35.00,114.62 C35.11,115.63 33.39,125.86 34.75,138.00 C34.76,138.12 40.85,155.53 42.75,157.12 C42.75,157.12 43.25,158.38 43.25,158.38 C43.25,158.38 44.00,160.38 44.00,160.38 C44.00,160.38 44.50,161.38 44.50,161.38 C44.50,161.38 45.25,162.88 45.25,162.88 C45.25,162.88 45.50,163.88 45.50,163.88 C45.62,164.00 45.75,154.01 45.75,154.00 C46.77,148.88 50.29,132.14 50.50,131.38 C51.11,129.12 52.05,110.40 52.50,105.62 C53.50,99.81 57.54,80.49 57.50,80.12 C57.50,80.12 59.00,77.88 59.00,77.88 C59.00,77.88 62.50,71.62 62.50,71.62 C62.50,71.62 63.25,70.38 63.25,70.38 C63.25,70.38 64.62,68.00 64.62,68.00 C64.62,68.00 66.38,65.62 66.38,65.62 C66.38,65.62 69.75,62.75 69.75,62.75 C69.75,62.75 71.12,62.00 71.12,62.00 C74.05,60.04 92.80,57.56 94.88,58.00 C99.57,59.05 102.57,65.01 102.50,65.12 C102.50,65.12 103.25,66.38 103.25,66.38 C103.44,67.51 104.51,71.89 104.50,72.25 C104.49,72.68 104.50,76.21 104.50,77.50" fill="none" stroke="rgb(0, 0, 0)" stroke-width="20.00" stroke-opacity="1.00" stroke-linejoin="round"/>
<path d="M180.00,57.75 C180.46,58.62 184.36,62.13 185.88,63.62 C190.08,67.64 197.56,78.75 200.12,82.62 C200.23,82.76 200.26,83.13 200.25,83.62 C200.50,83.75 196.51,79.83 187.72,69.78 C186.07,67.89 171.75,53.29 171.37,52.50 C171.37,52.50 170.37,51.50 170.37,51.50 C169.26,51.67 181.93,69.04 182.12,69.37 C182.12,69.37 184.62,72.00 184.62,72.00 C185.22,69.29 184.55,66.31 182.75,62.62 C181.92,60.90 180.69,58.54 180.62,58.50 C180.62,58.50 187.62,62.50 187.62,62.50 C187.62,62.50 184.62,58.00 184.62,58.00 C184.62,58.00 183.37,56.62 183.37,56.62 C183.10,56.50 185.52,57.71 192.75,68.75 C192.91,69.00 195.91,73.54 196.00,73.62 C196.23,74.12 200.81,81.25 204.25,88.37 C205.40,90.79 206.48,95.23 207.38,98.12 C207.60,98.85 210.17,113.73 210.25,113.87 C210.29,110.34 207.59,100.16 207.00,97.87 C205.29,91.23 204.24,88.12 202.37,83.75 C197.43,72.34 195.06,70.19 194.87,70.12 C194.87,70.12 192.50,65.62 192.50,65.62 C192.27,65.62 206.81,93.56 206.88,94.00 C207.25,96.68 209.86,104.99 209.75,105.37 C210.04,102.49 208.23,97.61 207.50,95.12 C206.88,93.02 201.58,81.22 200.62,79.62 C200.62,79.62 199.00,76.87 199.00,76.87 C199.00,76.87 198.25,75.12 198.25,75.12 C198.71,75.76 204.32,86.09 208.00,94.87 C208.58,96.23 208.94,98.07 209.62,99.37 C209.73,97.56 207.52,91.45 207.50,91.37 C206.32,87.36 203.56,81.75 202.25,79.00 C201.41,77.39 199.81,73.99 199.62,73.87 C199.55,74.16 205.73,87.71 206.12,88.50 C206.28,88.94 207.47,92.40 207.75,92.62 C207.75,92.62 211.75,102.62 211.75,102.62 C211.75,102.62 213.00,105.62 213.00,105.62 C213.00,105.62 213.75,107.87 213.75,107.87 C213.75,107.87 214.25,109.87 214.25,109.87 C214.25,109.87 215.00,114.62 215.00,114.62 C214.89,115.63 216.61,125.86 215.25,138.00 C215.24,138.12 209.15,155.52 207.25,157.12 C207.25,157.12 206.75,158.37 206.75,158.37 C206.75,158.37 206.00,160.37 206.00,160.37 C206.00,160.37 205.50,161.37 205.50,161.37 C205.50,161.37 204.75,162.87 204.75,162.87 C204.75,162.87 204.50,163.87 204.50,163.87 C204.38,164.00 204.25,154.01 204.25,154.00 C203.23,148.88 199.71,132.14 199.50,131.37 C198.89,129.12 197.95,110.40 197.50,105.62 C196.50,99.81 192.46,80.49 192.50,80.12 C192.50,80.12 191.00,77.87 191.00,77.87 C191.00,77.87 187.50,71.62 187.50,71.62 C187.50,71.62 186.75,70.37 186.75,70.37 C186.75,70.37 185.38,68.00 185.38,68.00 C185.38,68.00 183.62,65.62 183.62,65.62 C183.62,65.62 180.25,62.75 180.25,62.75 C180.25,62.75 178.88,62.00 178.88,62.00 C175.95,60.04 157.20,57.56 155.12,58.00 C150.43,59.05 147.43,65.01 147.50,65.12 C147.50,65.12 146.75,66.37 146.75,66.37 C146.56,67.51 145.49,71.89 145.50,72.25 C145.51,72.68 145.50,76.21 145.50,77.50" fill="none" stroke="rgb(0, 0, 0)" stroke-width="20.00" stroke-opacity="1.00" stroke-linejoin="round"/>
<path d="M101.96,78.36 C101.96,78.36 102.17,77.84 102.17,77.84 C102.17,77.84 102.27,75.88 102.27,75.88 C102.27,75.88 102.17,77.27 102.17,77.27" fill="none" stroke="rgb(0, 0, 0)" stroke-width="20.00" stroke-opacity="1.00" stroke-linejoin="round"/>
<path d="M148.04,78.36 C148.04,78.36 147.83,77.84 147.83,77.84 C147.83,77.84 147.73,75.88 147.73,75.88 C147.73,75.88 147.83,77.27 147.83,77.27" fill="none" stroke="rgb(0, 0, 0)" stroke-width="20.00" stroke-opacity="1.00" stroke-linejoin="round"/>
<path d="M95.45,80.68 C95.45,80.68 94.83,74.43 94.83,74.43 C94.83,74.43 94.16,73.50 94.16,73.50 C94.16,73.50 92.10,71.44 92.10,71.44 C92.10,71.44 90.03,69.89 90.03,69.89 C89.85,69.40 86.64,68.41 85.38,68.18 C82.14,67.58 79.97,68.19 79.80,68.18 C79.80,68.18 78.25,68.70 78.25,68.70 C78.25,68.70 72.62,72.47 72.62,72.47 C72.62,72.47 80.63,68.85 80.63,68.85 C80.04,68.54 75.24,72.12 75.00,72.37 C74.62,72.69 72.38,75.71 72.31,75.77 C72.31,75.77 71.69,76.91 71.69,76.91 C71.69,76.91 71.28,77.84 71.28,77.84 C71.32,77.91 70.87,79.84 70.82,79.91 C70.54,80.31 70.67,84.93 70.66,84.97 C70.66,84.97 71.59,79.91 71.59,79.91 C71.59,79.91 72.52,86.52 72.52,86.52 C72.52,86.52 73.04,87.65 73.04,87.65 C73.04,87.65 73.92,88.64 73.92,88.64 C73.92,88.64 73.14,85.59 73.14,85.59 C73.14,85.59 74.12,87.96 74.12,87.96 C74.12,87.96 76.96,89.67 76.96,89.67" fill="none" stroke="rgb(0, 0, 0)" stroke-width="8.00" stroke-opacity="1.00" stroke-linejoin="round"/>
<path d="M154.55,80.68 C154.55,80.68 155.17,74.43 155.17,74.43 C155.17,74.43 155.84,73.50 155.84,73.50 C155.84,73.50 157.70,71.54 157.70,71.54 C157.70,71.54 159.97,69.89 159.97,69.89 C160.15,69.40 163.36,68.41 164.62,68.18 C167.86,67.58 170.03,68.19 170.20,68.18 C170.20,68.18 171.75,68.70 171.75,68.70 C171.75,68.70 177.38,72.47 177.38,72.47 C177.38,72.47 169.37,68.85 169.37,68.85 C169.96,68.54 174.76,72.12 175.00,72.37 C175.38,72.69 177.62,75.71 177.69,75.77 C177.69,75.77 178.31,76.91 178.31,76.91 C178.31,76.91 178.72,77.84 178.72,77.84 C178.68,77.91 179.13,79.84 179.18,79.91 C179.46,80.31 179.33,84.93 179.34,84.97 C179.34,84.97 178.41,79.91 178.41,79.91 C178.41,79.91 177.69,86.00 177.69,86.00 C177.69,86.00 177.17,87.04 177.17,87.04 C177.17,87.04 176.08,88.64 176.08,88.64 C176.08,88.64 176.86,85.59 176.86,85.59 C176.86,85.59 175.88,87.96 175.88,87.96 C175.88,87.96 173.04,89.67 173.04,89.67" fill="none" stroke="rgb(0, 0, 0)" stroke-width="8.00" stroke-opacity="1.00" stroke-linejoin="round"/>
<path d="M77.07,89.82 C77.07,91.66 75.52,102.09 75.52,102.12 C75.52,102.24 75.01,105.36 75.00,105.22 C74.99,105.12 74.99,104.69 75.00,103.93" fill="none" stroke="rgb(0, 0, 0)" stroke-width="8.00" stroke-opacity="1.00" stroke-linejoin="round"/>
<path d="M172.93,89.82 C172.93,91.66 174.48,102.09 174.48,102.12 C174.48,102.24 174.99,105.36 175.00,105.22 C175.01,105.12 175.01,104.69 175.00,103.93" fill="none" stroke="rgb(0, 0, 0)" stroke-width="8.00" stroke-opacity="1.00" stroke-linejoin="round"/>
<path d="M94.83,75.67 C94.83,75.67 93.49,74.12 93.49,74.12 C93.49,74.12 90.91,69.21 90.91,69.21" fill="none" stroke="rgb(0, 0, 0)" stroke-width="8.00" stroke-opacity="1.00" stroke-linejoin="round"/>
<path d="M155.17,75.67 C155.17,75.67 156.51,74.12 156.51,74.12 C156.51,74.12 159.09,69.21 159.09,69.21" fill="none" stroke="rgb(0, 0, 0)" stroke-width="8.00" stroke-opacity="1.00" stroke-linejoin="round"/>
<path d="M73.94,107.23 C73.94,107.23 72.06,116.71 72.06,116.71 C72.06,116.71 71.72,118.08 71.72,118.08 C71.72,118.08 72.91,113.29 72.91,113.29 C72.91,116.03 72.91,116.04 72.57,116.71 C69.16,122.74 65.70,127.57 65.65,127.64 C65.57,127.75 64.35,129.77 64.20,129.86 C64.20,129.86 61.64,134.30 61.64,134.30 C61.64,134.30 60.45,136.69 60.45,136.69 C60.45,136.69 63.43,128.58 63.43,128.58 C63.43,128.58 60.96,137.37 60.96,137.37 C61.02,136.71 65.80,126.97 66.00,126.78 C66.03,126.76 66.11,126.70 66.25,126.61 C66.25,130.68 62.13,140.22 62.15,140.62 C62.15,140.62 61.81,140.70 61.81,140.70" fill="none" stroke="rgb(0, 0, 0)" stroke-width="8.00" stroke-opacity="1.00" stroke-linejoin="round"/>
<path d="M176.06,107.23 C176.06,107.23 177.94,116.71 177.94,116.71 C177.94,116.71 178.28,118.08 178.28,118.08 C178.28,118.08 177.09,113.29 177.09,113.29 C177.09,116.03 177.09,116.04 177.43,116.71 C180.84,122.74 184.30,127.57 184.35,127.64 C184.43,127.75 185.65,129.77 185.80,129.86 C185.80,129.86 188.36,134.30 188.36,134.30 C188.36,134.30 189.55,136.69 189.55,136.69 C189.55,136.69 186.57,128.58 186.57,128.58 C186.57,128.58 189.04,137.37 189.04,137.37 C188.98,136.71 184.20,126.97 184.00,126.78 C183.97,126.76 183.89,126.70 183.75,126.61 C183.75,130.68 187.87,140.22 187.85,140.62 C187.85,140.62 188.19,140.70 188.19,140.70" fill="none" stroke="rgb(0, 0, 0)" stroke-width="8.00" stroke-opacity="1.00" stroke-linejoin="round"/>
<path d="M63.09,91.18 C60.51,98.37 57.66,109.87 55.92,117.73 C55.22,121.02 54.29,126.02 54.13,127.47" fill="none" stroke="rgb(0, 0, 0)" stroke-width="25.00" stroke-opacity="1.00" stroke-linejoin="round"/>
<path d="M186.91,91.18 C189.49,98.37 192.34,109.87 194.08,117.73 C194.78,121.02 195.71,126.02 195.87,127.47" fill="none" stroke="rgb(0, 0, 0)" stroke-width="25.00" stroke-opacity="1.00" stroke-linejoin="round"/>
<path d="M63.01,100.40 C63.01,100.40 59.08,113.55 59.08,113.55" fill="none" stroke="rgb(0, 0, 0)" stroke-width="25.00" stroke-opacity="1.00" stroke-linejoin="round"/>
<path d="M186.99,100.40 C186.99,100.40 190.92,113.55 190.92,113.55" fill="none" stroke="rgb(0, 0, 0)" stroke-width="25.00" stroke-opacity="1.00" stroke-linejoin="round"/>
<path d="M59.35,172.15 C59.35,172.15 55.41,165.01 55.41,165.01 C55.41,165.01 54.85,162.75 54.85,162.75 C54.85,162.75 54.09,160.88 54.09,160.88 C54.09,160.88 53.34,157.68 53.34,157.68 C52.96,156.60 51.89,151.25 51.84,151.11 C51.06,146.50 52.65,142.53 52.78,142.28 C52.78,142.28 51.65,155.80 51.65,155.80 C51.66,154.85 51.78,153.12 52.03,152.42 C52.34,151.63 52.40,151.67 52.40,152.89 C52.40,153.81 52.73,155.62 53.34,158.43" fill="none" stroke="rgb(0, 0, 0)" stroke-width="25.00" stroke-opacity="1.00" stroke-linejoin="round"/>
<path d="M190.65,172.15 C190.65,172.15 194.59,165.01 194.59,165.01 C194.59,165.01 195.15,162.75 195.15,162.75 C195.15,162.75 195.91,160.88 195.91,160.88 C195.91,160.88 196.66,157.68 196.66,157.68 C197.04,156.60 198.11,151.25 198.16,151.11 C198.94,146.50 197.35,142.53 197.22,142.28 C197.22,142.28 198.35,155.80 198.35,155.80 C198.34,154.85 198.22,153.12 197.97,152.42 C197.66,151.63 197.60,151.67 197.60,152.89 C197.60,153.81 197.27,155.62 196.66,158.43" fill="none" stroke="rgb(0, 0, 0)" stroke-width="25.00" stroke-opacity="1.00" stroke-linejoin="round"/>
<path d="M54.09,154.58 C54.09,154.58 56.54,165.10 56.54,165.10" fill="none" stroke="rgb(0, 0, 0)" stroke-width="25.00" stroke-opacity="1.00" stroke-linejoin="round"/>
<path d="M195.91,154.58 C195.91,154.58 193.46,165.10 193.46,165.10" fill="none" stroke="rgb(0, 0, 0)" stroke-width="25.00" stroke-opacity="1.00" stroke-linejoin="round"/>
<path d="M63.30,177.69 C63.23,179.76 66.29,182.18 70.34,184.64 C70.34,184.64 72.60,186.04 72.60,186.04 C72.60,186.04 73.91,187.27 73.91,187.27 C73.91,187.27 78.04,190.55 78.04,190.55 C78.04,190.55 81.42,193.09 81.42,193.09 C81.42,193.09 83.11,193.84 83.11,193.84 C83.11,193.84 85.37,194.97 85.37,194.97 C85.37,194.97 88.00,195.72 88.00,195.72 C88.00,195.72 92.88,197.22 92.88,197.22 C92.88,197.22 95.89,198.16 95.89,198.16 C95.89,198.16 97.20,198.72 97.20,198.72 C97.20,198.72 99.64,199.66 99.64,199.66 C99.64,199.66 100.96,200.23 100.96,200.23 C100.96,200.23 106.03,201.54 106.03,201.54 C108.20,201.56 111.48,202.25 115.51,202.48 C122.04,203.25 135.83,203.18 135.99,203.23 C136.43,203.39 134.18,203.88 133.92,203.79" fill="none" stroke="rgb(0, 0, 0)" stroke-width="25.00" stroke-opacity="1.00" stroke-linejoin="round"/>
<path d="M186.70,177.69 C186.77,179.76 183.71,182.18 179.66,184.64 C179.66,184.64 177.03,186.51 177.03,186.51 C177.03,186.51 176.09,187.27 176.09,187.27 C176.09,187.27 174.49,188.30 174.49,188.30 C174.49,188.30 168.58,193.09 168.58,193.09 C168.58,193.09 166.89,193.84 166.89,193.84 C166.89,193.84 164.63,194.97 164.63,194.97 C164.63,194.97 162.00,195.72 162.00,195.72 C162.00,195.72 160.12,196.47 160.12,196.47 C160.12,196.47 157.12,197.22 157.12,197.22 C157.12,197.22 154.11,198.16 154.11,198.16 C154.11,198.16 152.80,198.72 152.80,198.72 C152.80,198.72 150.36,199.66 150.36,199.66 C150.36,199.66 149.04,200.23 149.04,200.23 C149.04,200.23 143.97,201.54 143.97,201.54 C141.80,201.56 138.52,202.25 134.49,202.48 C127.96,203.25 114.17,203.18 114.01,203.23 C113.57,203.39 115.82,203.88 116.08,203.79" fill="none" stroke="rgb(0, 0, 0)" stroke-width="25.00" stroke-opacity="1.00" stroke-linejoin="round"/>
<path d="M100.39,200.32 C100.39,200.32 106.40,201.16 106.40,201.16 C106.40,201.16 103.78,200.98 103.78,200.98 C103.78,200.98 114.67,201.54 114.67,201.54 C114.67,201.54 105.56,201.54 105.56,201.54 C106.15,201.51 109.56,202.14 111.42,202.12 C117.27,202.11 125.19,202.10 127.25,202.10" fill="none" stroke="rgb(0, 0, 0)" stroke-width="25.00" stroke-opacity="1.00" stroke-linejoin="round"/>
<path d="M149.61,200.32 C149.61,200.32 143.60,201.16 143.60,201.16 C143.60,201.16 146.22,200.98 146.22,200.98 C146.22,200.98 135.33,201.54 135.33,201.54 C135.33,201.54 144.44,201.54 144.44,201.54 C143.85,201.51 140.44,202.14 138.58,202.12 C132.73,202.11 124.81,202.10 122.75,202.10" fill="none" stroke="rgb(0, 0, 0)" stroke-width="25.00" stroke-opacity="1.00" stroke-linejoin="round"/>
<path d="M63.30,176.93" fill="none" stroke="rgb(0, 0, 0)" stroke-width="25.00" stroke-opacity="1.00" stroke-linejoin="round"/>
<path d="M186.70,176.93" fill="none" stroke="rgb(0, 0, 0)" stroke-width="25.00" stroke-opacity="1.00" stroke-linejoin="round"/>
<path d="M43.95,159.09 C43.95,159.09 51.18,170.64 51.18,170.64 C51.18,170.64 52.22,171.96 52.22,171.96 C52.22,171.96 52.59,172.90 52.59,172.90 C52.59,172.90 53.72,174.40 53.72,174.40 C53.72,174.40 54.47,175.71 54.47,175.71 C54.47,175.71 57.10,179.09 57.10,179.09 C59.15,181.75 64.22,187.03 64.71,186.89 C64.75,186.88 65.19,187.17 65.27,187.27 C65.27,187.27 68.65,189.43 68.65,189.43 C68.65,189.43 73.53,193.09 73.53,193.09 C73.53,193.09 74.29,193.75 74.29,193.75" fill="none" stroke="rgb(0, 0, 0)" stroke-width="25.00" stroke-opacity="1.00" stroke-linejoin="round"/>
<path d="M206.05,159.09 C206.05,159.09 198.82,170.64 198.82,170.64 C198.82,170.64 197.78,171.96 197.78,171.96 C197.78,171.96 197.41,172.90 197.41,172.90 C197.41,172.90 196.28,174.40 196.28,174.40 C196.28,174.40 195.53,175.71 195.53,175.71 C195.53,175.71 194.31,177.59 194.31,177.59 C194.31,177.59 192.90,179.09 192.90,179.09 C190.85,181.75 185.78,187.03 185.29,186.89 C185.25,186.88 184.81,187.17 184.73,187.27 C184.73,187.27 176.47,193.09 176.47,193.09 C176.47,193.09 175.71,193.75 175.71,193.75" fill="none" stroke="rgb(0, 0, 0)" stroke-width="25.00" stroke-opacity="1.00" stroke-linejoin="round"/>
<path d="M67.52,192.15 C67.52,192.15 78.79,200.41 78.79,200.41 C78.79,200.41 85.18,202.67 85.18,202.67 C85.18,202.67 91.75,204.92 91.75,204.92 C91.75,204.92 92.88,205.11 92.88,205.11 C92.88,205.11 98.14,206.99 98.14,206.99 C98.14,206.99 102.08,208.68 102.08,208.68 C102.17,208.75 111.01,210.47 111.29,210.56 C112.00,210.76 119.69,211.86 120.30,212.06 C120.96,212.25 133.70,212.25 134.20,212.06" fill="none" stroke="rgb(0, 0, 0)" stroke-width="25.00" stroke-opacity="1.00" stroke-linejoin="round"/>
<path d="M182.48,192.15 C182.48,192.15 171.21,200.41 171.21,200.41 C171.21,200.41 164.82,202.67 164.82,202.67 C164.82,202.67 158.25,204.92 158.25,204.92 C158.25,204.92 157.12,205.11 157.12,205.11 C157.12,205.11 151.86,206.99 151.86,206.99 C151.86,206.99 147.92,208.68 147.92,208.68 C147.83,208.75 138.99,210.47 138.71,210.56 C138.00,210.76 130.31,211.86 129.70,212.06 C129.04,212.25 116.30,212.25 115.80,212.06" fill="none" stroke="rgb(0, 0, 0)" stroke-width="25.00" stroke-opacity="1.00" stroke-linejoin="round"/>
<path d="M102.93,167.03 C102.93,167.00 100.96,164.49 100.37,163.72 C99.95,163.05 100.01,160.88 100.02,160.80 C100.02,160.80 100.02,160.88 100.02,160.88" fill="none" stroke="rgb(0, 0, 0)" stroke-width="3.00" stroke-opacity="1.00" stroke-linejoin="round"/>
<path d="M147.07,167.03 C147.07,167.00 149.04,164.49 149.63,163.72 C150.05,163.05 149.99,160.88 149.98,160.80 C149.98,160.80 149.98,160.88 149.98,160.88" fill="none" stroke="rgb(0, 0, 0)" stroke-width="3.00" stroke-opacity="1.00" stroke-linejoin="round"/>
<path d="M141.92,46.34 C141.92,46.34 151.07,48.23 151.07,48.23 C151.07,48.23 146.97,48.23 146.97,48.23" fill="none" stroke="rgb(0, 0, 0)" stroke-width="40.00" stroke-opacity="1.00" stroke-linejoin="round"/>
<path d="M108.08,46.34 C108.08,46.34 98.93,48.23 98.93,48.23 C98.93,48.23 103.03,48.23 103.03,48.23" fill="none" stroke="rgb(0, 0, 0)" stroke-width="40.00" stroke-opacity="1.00" stroke-linejoin="round"/>
<path d="M139.77,46.59" fill="none" stroke="rgb(0, 0, 0)" stroke-width="40.00" stroke-opacity="1.00" stroke-linejoin="round"/>
<path d="M110.23,46.59" fill="none" stroke="rgb(0, 0, 0)" stroke-width="40.00" stroke-opacity="1.00" stroke-linejoin="round"/>
</g>
</svg>
